Coordinates
version=1
nRows=12
nColumns=33
inDegrees=yes

Units are S.I. units (second, meters, Newtons, ...)
Angles are in degrees.

endheader
time	ground_thorax_rot_x	ground_thorax_rot_y	ground_thorax_rot_z	ground_thorax_tx	ground_thorax_ty	ground_thorax_tz	clav_prot_r	clav_elev_r	scapula_abduction_r	scapula_elevation_r	scapula_upward_rot_r	scapula_winging_r	shoulder_elv_r	plane_of_elev_r	axial_rot_r	elbow_flexion_r	pro_sup_r	wrist_flex_r	wrist_dev_r	clav_prot_l	clav_elev_l	scapula_abduction_l	scapula_elevation_l	scapula_upward_rot_l	scapula_winging_l	shoulder_elv_l	plane_of_elev_l	axial_rot_l	elbow_flexion_l	pro_sup_l	wrist_flex_l	wrist_dev_l
     10.57000000	    -20.21258634	    -34.16933232	     56.68529604	    -77.16907925	    776.73208095	      6.87288680	      8.91365833	    -45.00000000	     37.00839587	    -45.00000000	    -45.00000000	   2061.39576653	  -1736.24529747	     28.62463931	     76.75985321	   2169.65622744	     30.86443022	     17.34264495	     10.58220998	     13.04412080	     37.08378472	    -29.97589524	    -45.00000000	    -45.00000000	  -2081.01956024	   2058.55940905	    139.65894531	    151.62509879	   1447.95211447	   -336.69104397	      9.63403883	    -18.56048748
     10.58000000	    -19.83291731	    -34.51604013	     57.23408718	    -73.52915998	    776.29244935	      6.90374196	      8.85427823	    -45.00000000	     36.91780947	    -45.00000000	    -45.00000000	   2061.52309901	  -1736.46657234	     28.38729255	     77.27518485	   2169.50731048	     31.40880101	     17.27982587	     10.52799823	     13.10166213	     37.10283550	    -29.74290928	    -45.00000000	    -45.00000000	  -2081.23996144	   2058.40462230	    139.87461605	    150.97215482	   1447.75574347	   -336.10370677	      9.56292951	    -18.52597186
     10.59000000	    -19.45959520	    -34.77248775	     57.78959503	    -70.15775465	    776.00670720	      6.94105493	      8.88806234	    -45.00000000	     36.90850787	    -45.00000000	    -45.00000000	   2061.56560640	  -1736.64202765	     28.16407982	     77.69715391	   2169.34504191	     31.95403628	     17.22000599	     10.48176218	     13.03394602	     37.08940838	    -29.53876255	    -45.00000000	    -45.00000000	  -2081.45705710	   2058.23784576	    140.00206974	    150.52371034	   1447.57865280	   -335.54656547	      9.51559195	    -18.49659652
     10.60000000	    -19.14024076	    -35.01964025	     58.23933827	    -67.07496036	    775.86031600	      6.98677986	      8.86522905	    -45.00000000	     36.88077942	    -45.00000000	    -45.00000000	   2061.64916536	  -1736.77536768	     27.98525545	     77.89630091	   2169.21195892	     32.45060510	     17.16756942	     10.44058304	     13.04062287	     37.06768711	    -29.33605695	    -45.00000000	    -45.00000000	  -2081.69209786	   2058.09790173	    140.11722848	    150.27953280	   1447.39750848	   -335.03242927	      9.45361925	    -18.45423032
     10.61000000	    -18.95155472	    -35.22762306	     58.53929756	    -64.28645126	    775.83337104	      7.04442512	      8.82417504	    -45.00000000	     36.82230292	    -45.00000000	    -45.00000000	   2061.74510291	  -1736.96238356	     27.83593542	     77.96951208	   2169.07427178	     32.92063219	     17.12295228	     10.41875233	     13.02754648	     37.09966356	    -29.21899859	    -45.00000000	    -45.00000000	  -2081.88312244	   2057.98093625	    140.17615590	    150.19362036	   1447.23965450	   -334.53531722	      9.41380687	    -18.42349887
     10.62000000	    -18.79659223	    -35.42355069	     58.77377242	    -61.79701758	    775.90333230	      7.11849885	      8.78057554	    -45.00000000	     36.75875890	    -45.00000000	    -45.00000000	   2061.84756086	  -1737.12706081	     27.72880914	     77.83055082	   2168.95148456	     33.30853388	     17.08691624	     10.41830643	     13.03211604	     37.11291014	    -29.11330421	    -45.00000000	    -45.00000000	  -2082.05987464	   2057.89027315	    140.19906850	    150.30604572	   1447.09443619	   -334.08054506	      9.37364157	    -18.38964227
     10.63000000	    -18.19523891	    -35.84396737	     59.54145235	    -59.59889701	    776.04778207	      7.21206355	      8.67456350	    -45.00000000	     36.80009168	    -45.00000000	    -45.00000000	   2062.11485790	  -1737.02847300	     27.26860870	     77.37968458	   2168.90490902	     33.47339122	     17.02837557	     10.33078577	     13.33494251	     37.02393579	    -28.41646379	    -45.00000000	    -45.00000000	  -2082.57710252	   2058.17738857	    140.49033631	    150.70778930	   1447.13496929	   -333.83440372	      9.19215786	    -18.32619777
     10.64000000	    -18.36163977	    -35.88673135	     59.38116399	    -57.67437030	    776.24653747	      7.32608093	      8.91231402	    -45.00000000	     36.83621840	    -45.00000000	    -45.00000000	   2061.89006952	  -1737.53030358	     27.56429810	     77.27312900	   2168.70451124	     33.62877560	     17.03418044	     10.53758104	     12.85139282	     37.00487159	    -28.73244785	    -45.00000000	    -45.00000000	  -2082.32924102	   2057.81142658	    140.15342683	    150.96824797	   1446.83193589	   -333.54716586	      9.33700636	    -18.29888326
     10.65000000	    -18.39373375	    -35.99222048	     59.44343037	    -55.99700217	    776.48292933	      7.45771212	      8.51091260	    -45.00000000	     36.42790411	    -45.00000000	    -45.00000000	   2062.38020697	  -1737.24839129	     27.21714908	     76.66181436	   2168.77944365	     33.57916595	     16.99188657	     10.35471524	     13.53911645	     37.16693366	    -28.91378363	    -45.00000000	    -45.00000000	  -2082.63078507	   2057.67816202	    140.46450308	    151.37187542	   1446.81168823	   -333.33634989	      9.21201633	    -18.25613097
     10.66000000	    -18.50301784	    -36.04919242	     59.23794078	    -54.53579484	    776.74548981	      7.60561257	      8.50728011	    -45.00000000	     36.58984640	    -45.00000000	    -45.00000000	   2062.10305982	  -1737.77771617	     27.61383320	     76.28091997	   2168.62010494	     33.51254072	     17.03960475	     10.69281763	     13.19826641	     37.06792446	    -28.87009024	    -45.00000000	    -45.00000000	  -2082.49728372	   2057.53985993	    139.96813708	    151.88219251	   1446.57482683	   -333.17955621	      9.32159241	    -18.22911190
     10.67000000	    -18.31196369	    -36.24205592	     59.53231639	    -53.25848968	    777.02813438	      7.76686805	      8.45233256	    -45.00000000	     36.34528588	    -45.00000000	    -45.00000000	   2062.57498225	  -1737.45198773	     27.16696366	     75.79050898	   2168.75637801	     33.26646422	     17.01263647	     10.46754995	     13.42956539	     37.19427401	    -28.72473380	    -45.00000000	    -45.00000000	  -2082.89612386	   2057.54419879	    140.27555512	    152.49305215	   1446.57953831	   -333.09382403	      9.30571087	    -18.23737920
     10.68000000	    -18.46715448	    -36.28022566	     59.30534848	    -52.13513600	    777.32808301	      7.93994745	      8.45930668	    -45.00000000	     36.53807507	    -45.00000000	    -45.00000000	   2062.22433756	  -1738.00440612	     27.61739450	     75.57763086	   2168.66261006	     33.01753641	     17.06652471	     10.82080369	     13.23801570	     37.05486758	    -28.81136487	    -45.00000000	    -45.00000000	  -2082.69335035	   2057.38848323	    139.83692952	    152.90203499	   1446.38027991	   -333.02677488	      9.42097786	    -18.22614728
